<svg id="Laag_1" data-name="Laag 1" xmlns="http://www.w3.org/2000/svg" viewBox="0 0 138.84 215.81"><defs><style>.cls-1{font-size:91.77px;font-family:PalaceScriptMT, Palace Script MT;}.cls-2{fill:#48419e;}</style></defs><title>delft</title><text class="cls-1" transform="translate(0 193.58)">Delft</text><path class="cls-2" d="M32.3,74.23S37,60.76,47.78,52.68c0,0-6.73-.67-7.4-4s-2-14.14,2-18.85,6.73-12.12,8.08-12.12S55.19,17,57.88,21c0,0,6.06-1.35,8.08,2,0,0,4.71-1.35,6.06,2s7.41,12.79,10.77,14.81a6.83,6.83,0,0,1-1.34,3.37s0,7.4-.68,8.08S75.39,52,73.37,54a5.09,5.09,0,0,0,0,6.73l5.38,5.39L74,70.86s-2.69-1.35-1.35,1.35c0,0-4,2-6,8.08,0,0-2,.67,0,3.36s-1.35,6.06-5.39,6.74c0,0,2,22.21-3.37,38.37,0,0,5.39-1.34,5.39,2.7s-2,8.75-5.39,10.09c0,0-1.34,8.76-8.08,8.76S37,146.94,32.3,146.94s-5.39-4-3.37-8.08c0,0-10.1-27.6-10.77-32.32S15.47,89.71,29.61,79.61C29.61,79.61,30.28,75.57,32.3,74.23Z" transform="translate(-16.66 -17.63)"/><path class="cls-2" d="M101.65,58.74s-3.37-4-6.74-4.71-4.71-5.39-4.71-8.75-1.35-4,0-6.06,9.43-13.47,11.45-14.81,16.15-2.7,24.23,4.71,6.74,17.5,2.7,18.85-16.84.67-10.78,5.39c0,0,6.74,0,14.82,10.77,0,0,2-2.69,4.71-2s2.69,2.69,4,2,4-1.35,4.71,0,2,3.36-.67,8.08c0,0,2,0,1.34,5.38,0,0,4,4.72-.67,6.06s-2,3.37-.67,5.39,13.46,37,7.4,38.38-15.48,5.38-15.48,8.08,4,2.69,2,7.4-8.08,2.69-11.45,4.71-15.48,0-17.5-8.75c0,0-4-4-4-7.4s2-2.7,3.36-2.7-2.35-11.11-2.35-17.84,2-21.54,2.69-24.24S104,80,104,77.93s-.67-7.41-.67-7.41-6.73,1.35-5.39-2S102,61.77,101.65,58.74Z" transform="translate(-16.66 -17.63)"/></svg>