<svg id="Laag_1" data-name="Laag 1" xmlns="http://www.w3.org/2000/svg" viewBox="0 0 302 298"><defs><style>.cls-1{fill:#ffc200;opacity:0.5;}.cls-2{fill:#ff6d00;opacity:0.75;}.cls-3{fill:#ff4200;}.cls-4{fill:#e0e0e0;}.cls-5{fill:#fff;}</style></defs><title>kindasunny</title><circle class="cls-1" cx="149" cy="149" r="149"/><circle class="cls-2" cx="149" cy="149" r="128"/><circle class="cls-3" cx="149" cy="149" r="105"/><path class="cls-4" d="M336,254.23a28.48,28.48,0,0,0-28.49-28.48c-.69,0-1.38,0-2.07.08a40.74,40.74,0,0,0,.37-5.44,41.38,41.38,0,0,0-81.73-9.22l-1.29,0a35.79,35.79,0,0,0-1.71,71.53v.05h88.63v-.1A28.48,28.48,0,0,0,336,254.23Z" transform="translate(-34 -25)"/><path class="cls-5" d="M257,281.23a28.48,28.48,0,0,0-28.49-28.48c-.69,0-1.38,0-2.07.08a40.74,40.74,0,0,0,.37-5.44,41.38,41.38,0,0,0-81.73-9.22l-1.29,0a35.79,35.79,0,0,0-1.71,71.53v.05h88.63v-.1A28.48,28.48,0,0,0,257,281.23Z" transform="translate(-34 -25)"/></svg>