<svg id="Laag_1" data-name="Laag 1" xmlns="http://www.w3.org/2000/svg" viewBox="0 0 306 410.4"><defs><style>.cls-1{fill:#b8f5ff;opacity:0.75;}.cls-2{fill:#b2b2b2;}</style></defs><title>raining</title><path class="cls-1" d="M230.77,395.37c0,6.22-3.29,11.26-7.36,11.26s-7.36-5-7.36-11.26,3.3-27.32,7.36-27.32S230.77,389.15,230.77,395.37Z" transform="translate(-32 -7)"/><path class="cls-1" d="M302.33,288.92c0,6.23-3.29,11.27-7.36,11.27s-7.36-5-7.36-11.27,3.3-27.32,7.36-27.32S302.33,282.7,302.33,288.92Z" transform="translate(-32 -7)"/><path class="cls-1" d="M114.43,228.18c0,6.22-3.29,11.26-7.36,11.26s-7.36-5-7.36-11.26,3.29-27.32,7.36-27.32S114.43,222,114.43,228.18Z" transform="translate(-32 -7)"/><path class="cls-1" d="M108.69,312c0,8.25-4.37,14.94-9.77,14.94s-9.76-6.69-9.76-14.94,4.37-36.25,9.76-36.25S108.69,303.71,108.69,312Z" transform="translate(-32 -7)"/><path class="cls-1" d="M64.26,297.18c0,8.25-4.37,14.94-9.77,14.94s-9.76-6.69-9.76-14.94,4.37-36.25,9.76-36.25S64.26,288.92,64.26,297.18Z" transform="translate(-32 -7)"/><path class="cls-1" d="M137.31,267.93c0,8.25-4.38,14.94-9.77,14.94s-9.76-6.69-9.76-14.94,4.37-36.25,9.76-36.25S137.31,259.67,137.31,267.93Z" transform="translate(-32 -7)"/><path class="cls-1" d="M185.53,235.56c0,8.25-4.38,14.94-9.77,14.94S166,243.81,166,235.56s4.37-36.25,9.76-36.25S185.53,227.3,185.53,235.56Z" transform="translate(-32 -7)"/><path class="cls-1" d="M169.32,283.74C169.32,290,166,295,162,295s-7.36-5-7.36-11.26,3.3-27.33,7.36-27.33S169.32,277.52,169.32,283.74Z" transform="translate(-32 -7)"/><path class="cls-1" d="M230.16,284.65c0,8.25-4.37,14.94-9.76,14.94s-9.77-6.69-9.77-14.94S215,248.4,220.4,248.4,230.16,276.39,230.16,284.65Z" transform="translate(-32 -7)"/><path class="cls-1" d="M270.73,302.91c0,8.25-4.37,14.94-9.76,14.94s-9.77-6.69-9.77-14.94,4.37-36.25,9.77-36.25S270.73,294.65,270.73,302.91Z" transform="translate(-32 -7)"/><path class="cls-1" d="M62.28,220.53c0,6.22-3.29,11.26-7.36,11.26s-7.36-5-7.36-11.26,3.29-27.32,7.36-27.32S62.28,214.31,62.28,220.53Z" transform="translate(-32 -7)"/><path class="cls-1" d="M285.49,245.61c0,8.25-4.37,14.94-9.76,14.94S266,253.86,266,245.61s4.37-36.25,9.77-36.25S285.49,237.35,285.49,245.61Z" transform="translate(-32 -7)"/><path class="cls-1" d="M326,352c0,8.87-4.7,16.07-10.5,16.07S305,360.85,305,352s4.7-39,10.5-39S326,343.1,326,352Z" transform="translate(-32 -7)"/><path class="cls-1" d="M87,355.32c0,8.26-4.37,14.95-9.77,14.95s-9.76-6.69-9.76-14.95,4.37-36.24,9.76-36.24S87,347.07,87,355.32Z" transform="translate(-32 -7)"/><path class="cls-1" d="M109,385c0,8.87-4.7,16.07-10.5,16.07S88,393.85,88,385s4.7-39,10.5-39S109,376.1,109,385Z" transform="translate(-32 -7)"/><path class="cls-1" d="M141.17,332c0,8.26-4.38,14.95-9.77,14.95s-9.76-6.69-9.76-14.95,4.37-36.24,9.76-36.24S141.17,323.7,141.17,332Z" transform="translate(-32 -7)"/><path class="cls-1" d="M152.05,395.1c0,8.26-4.38,14.95-9.77,14.95s-9.76-6.69-9.76-14.95,4.37-36.25,9.76-36.25S152.05,386.85,152.05,395.1Z" transform="translate(-32 -7)"/><path class="cls-1" d="M178.81,358c0,8.26-4.38,14.95-9.77,14.95s-9.76-6.69-9.76-14.95,4.37-36.24,9.76-36.24S178.81,349.79,178.81,358Z" transform="translate(-32 -7)"/><path class="cls-1" d="M235.37,343.3c0,8.26-4.37,14.95-9.76,14.95s-9.77-6.69-9.77-14.95,4.38-36.24,9.77-36.24S235.37,335.05,235.37,343.3Z" transform="translate(-32 -7)"/><path class="cls-1" d="M206.91,402.45c0,8.26-4.37,14.95-9.76,14.95s-9.76-6.69-9.76-14.95,4.37-36.25,9.76-36.25S206.91,394.2,206.91,402.45Z" transform="translate(-32 -7)"/><path class="cls-1" d="M206,326c0,8.87-4.7,16.07-10.5,16.07S185,334.85,185,326s4.7-39,10.5-39S206,317.1,206,326Z" transform="translate(-32 -7)"/><path class="cls-1" d="M266,380c0,8.87-4.7,16.07-10.5,16.07S245,388.85,245,380s4.7-39,10.5-39S266,371.1,266,380Z" transform="translate(-32 -7)"/><path class="cls-1" d="M249.12,262.53c0,6.22-3.3,11.26-7.36,11.26s-7.36-5-7.36-11.26,3.29-27.32,7.36-27.32S249.12,256.31,249.12,262.53Z" transform="translate(-32 -7)"/><path class="cls-1" d="M222.12,216.53c0,6.22-3.3,11.26-7.36,11.26s-7.36-5-7.36-11.26,3.29-27.32,7.36-27.32S222.12,210.31,222.12,216.53Z" transform="translate(-32 -7)"/><path class="cls-1" d="M295,344.56c0,8.26-4.37,14.95-9.76,14.95s-9.77-6.69-9.77-14.95,4.37-36.24,9.77-36.24S295,336.31,295,344.56Z" transform="translate(-32 -7)"/><path class="cls-1" d="M328,247.37c0,6.22-3.3,11.26-7.36,11.26s-7.36-5-7.36-11.26,3.29-27.32,7.36-27.32S328,241.15,328,247.37Z" transform="translate(-32 -7)"/><path class="cls-1" d="M307,216.37c0,6.22-3.3,11.26-7.36,11.26s-7.36-5-7.36-11.26,3.29-27.32,7.36-27.32S307,210.15,307,216.37Z" transform="translate(-32 -7)"/><path class="cls-1" d="M86.51,260.91c0,8.25-4.37,14.94-9.77,14.94S67,269.16,67,260.91s4.37-36.25,9.76-36.25S86.51,252.65,86.51,260.91Z" transform="translate(-32 -7)"/><path class="cls-2" d="M338,161.5A58.5,58.5,0,0,0,279.5,103c-1.43,0-2.85.07-4.25.17a85,85,0,0,0-167.11-30.1c-.88,0-1.75-.07-2.64-.07A73.5,73.5,0,0,0,102,219.91V220H284v-.19A58.5,58.5,0,0,0,338,161.5Z" transform="translate(-32 -7)"/></svg>