<?xml version="1.0" encoding="utf-8"?>
<!-- Generator: Adobe Illustrator 23.0.1, SVG Export Plug-In . SVG Version: 6.00 Build 0)  -->
<svg version="1.1" xmlns="http://www.w3.org/2000/svg" xmlns:xlink="http://www.w3.org/1999/xlink" x="0px" y="0px"
	 viewBox="0 0 133.66 292.95" style="enable-background:new 0 0 133.66 292.95;" xml:space="preserve">
<style type="text/css">
	.st0{fill:#455AA5;}
	.st1{fill:#59ABDF;}
	.st2{fill:#6FC8E4;}
	.st3{fill:#C2C2C2;}
	.st4{fill:#727272;}
	.st5{opacity:0.5;fill:#010202;}
	.st6{clip-path:url(#SVGID_2_);}
	.st7{fill:#264698;}
</style>
<g id="Laag_1">
</g>
<g id="Laag_2">
</g>
<g id="Laag_3">
	<g>
		<g>
			<path class="st0" d="M70.45,4.94c0,0,19,35.66,21.27,48.08c0,0-11.4-4.92-44.32-1.86C47.4,51.16,55.92,26.09,70.45,4.94z"/>
			<g>
				<path class="st0" d="M115.22,228.18c0,0,3.85,0.35,3.56,0.06c-0.28-0.29,11.16-42.58,11.16-42.58s2.76-13.75-9.38-23.95
					c-12.13-10.2-17.34-15.12-17.34-15.12l-7.11,40.58C96.12,187.18,115.8,193.25,115.22,228.18z"/>
				<path class="st0" d="M18.54,226.32c0,0-3.85,0.22-3.56-0.06c0.29-0.28-9.75-42.92-9.75-42.92s-2.3-13.83,10.16-23.63
					s17.83-14.53,17.83-14.53l5.76,40.79C38.97,185.96,19.11,191.38,18.54,226.32z"/>
			</g>
			<path class="st1" d="M65.6,288.41c0,0,24.87-57.99,22.64-69.17c-2.23-11.19-10.97-18.11-10.97-18.11l-20.8-0.34
				c0,0-10.85,11.94-11.34,18.55C44.39,229.31,53.87,253.61,65.6,288.41z"/>
			<path class="st2" d="M65.78,263.58c0,0,20.23-43.33,18.44-51.77c-1.79-8.44-6.31-7.92-6.31-7.92l-22.29-0.6
				c0,0-5.62,3.14-5.93,8.11C49.24,218.91,56.62,237.29,65.78,263.58z"/>
			<path class="st3" d="M47.4,51.16c0,0,30.68-4,44.32,1.86c0,0,27.43,70.01,0.51,146.11l-49.74-0.82
				C42.49,198.3,16.58,131.47,47.4,51.16z"/>
			<path class="st0" d="M50.33,203.43l33.67,0.56c0,0,3.91,0.18,5.48-4.97l-45.05-0.74C44.44,198.28,45.85,203.7,50.33,203.43z"/>
			<circle class="st4" cx="68.9" cy="81.43" r="11.05"/>
			<circle class="st5" cx="68.9" cy="81.43" r="8.78"/>
			<g>
				<g>
					<defs>
						
							<ellipse id="SVGID_1_" transform="matrix(0.7187 -0.6953 0.6953 0.7187 -37.0097 71.4302)" cx="69.77" cy="81.45" rx="7.84" ry="7.96"/>
					</defs>
					<clipPath id="SVGID_2_">
						<use xlink:href="#SVGID_1_"  style="overflow:visible;"/>
					</clipPath>
					<g class="st6">
						<g>
							<defs>
								<rect id="SVGID_3_" x="56.88" y="68.55" width="25.8" height="25.81"/>
							</defs>
							<clipPath id="SVGID_4_">
								<use xlink:href="#SVGID_3_"  style="overflow:visible;"/>
							</clipPath>
							<g style="clip-path:url(#SVGID_4_);">
								
									<image style="overflow:visible;" width="55" height="55" xlink:href="E6FD9AF3.jpg"  transform="matrix(0.48 0 0 0.48 56.6809 68.4153)">
								</image>
							</g>
						</g>
					</g>
				</g>
			</g>
			<path class="st7" d="M42.49,198.3c0,0-1.11-2.72-1.76-5.26l53.21,0.88c0,0-1.01,3.43-1.71,5.2L42.49,198.3z"/>
			<circle class="st4" cx="44.93" cy="193" r="1.38"/>
			<circle class="st4" cx="49.86" cy="193.08" r="1.38"/>
			<circle class="st4" cx="54.78" cy="193.16" r="1.38"/>
			<circle class="st4" cx="59.71" cy="193.24" r="1.38"/>
			<circle class="st4" cx="64.64" cy="193.32" r="1.38"/>
			<circle class="st4" cx="69.57" cy="193.4" r="1.38"/>
			<circle class="st4" cx="74.49" cy="193.49" r="1.38"/>
			<circle class="st4" cx="79.42" cy="193.57" r="1.38"/>
			<circle class="st4" cx="84.35" cy="193.65" r="1.38"/>
			<circle class="st4" cx="89.27" cy="193.73" r="1.38"/>
		</g>
		<g>
			<path class="st5" d="M70.42,5.1c0,0-59.77,109.17-15.2,198.47l-5.06-0.08c0,0-4.26,0.22-5.52-5.12l-2.15-0.06L38.72,186
				c0,0-19.44,6.14-20.24,40.39l-3.45,0c0,0-10.46-40.74-10.07-44.54c0.39-3.79-1.06-12.15,10.26-22.08
				c10.42-9.15,17.32-14.04,17.32-14.04S23.88,79.19,70.42,5.1z"/>
			<path class="st0" d="M69.46,134.77L69.46,134.77c-1.62,0-2.94,1.44-2.93,3.22l0.08,71.98c0,0.01,0,0.02,0,0.03l2.23,14.13
				c0.03,0.2,0.29,0.21,0.34,0.01L72.39,210c0-0.01,0.01-0.03,0.01-0.05l-0.08-72.06C72.31,136.17,71.03,134.77,69.46,134.77z"/>
		</g>
	</g>
</g>
</svg>
