<svg id="Laag_1" data-name="Laag 1" xmlns="http://www.w3.org/2000/svg" viewBox="0 0 458 342"><defs><style>.cls-1{fill:#ffc200;opacity:0.5;}.cls-2{fill:#ff6d00;opacity:0.75;}.cls-3{fill:#ff4200;}.cls-4{fill:#595555;}.cls-5{fill:#d3d3d3;}.cls-6{fill:#d8d8d8;}</style></defs><title>suncloud</title><circle class="cls-1" cx="243" cy="149" r="149"/><circle class="cls-2" cx="243" cy="149" r="128"/><circle class="cls-3" cx="243" cy="149" r="105"/><path class="cls-4" d="M464,209.73c0-21.7-16.86-39.28-37.66-39.28-.92,0-1.83.05-2.74.12a59.92,59.92,0,0,0,.48-7.5c0-31.52-24.49-57.07-54.72-57.07-26,0-47.8,19-53.34,44.35-.57,0-1.13,0-1.7,0-26.13,0-47.32,22.09-47.32,49.34,0,26.47,20,48.06,45.07,49.29V249H429.24v-.13C448.68,247.33,464,230.4,464,209.73Z" transform="translate(-6 -12)"/><path class="cls-5" d="M234,195.41a43.6,43.6,0,0,0-43.59-43.59c-1.07,0-2.12.06-3.17.13A63.32,63.32,0,0,0,62.73,129.52c-.65,0-1.3-.05-2-.05a54.76,54.76,0,0,0-2.6,109.46V239h135.6v-.14A43.58,43.58,0,0,0,234,195.41Z" transform="translate(-6 -12)"/><path class="cls-6" d="M393,295.5A58.5,58.5,0,0,0,334.5,237c-1.43,0-2.85.07-4.25.17a85,85,0,0,0-167.11-30.1c-.88,0-1.75-.07-2.64-.07A73.5,73.5,0,0,0,157,353.91V354H339v-.19A58.5,58.5,0,0,0,393,295.5Z" transform="translate(-6 -12)"/></svg>