<svg id="Laag_1" data-name="Laag 1" xmlns="http://www.w3.org/2000/svg" viewBox="0 0 306 491.71"><defs><style>.cls-1{fill:#fffc55;}.cls-2{fill:#2b2b2b;}</style></defs><title>thunderstorm</title><polygon class="cls-1" points="51.74 331.74 32 343 43.26 323.26 124.52 242 44.52 242 134.76 151.76 143.24 160.24 73.48 230 153.49 230 51.74 331.74"/><polygon class="cls-1" points="161.74 363.74 146.49 370.49 153.26 355.26 234.51 274 154.51 274 244.76 183.76 253.24 192.24 183.49 262 263.49 262 161.74 363.74"/><polygon class="cls-1" points="63.74 483.74 46.71 491.71 55.26 475.26 136.51 394 56.52 394 146.76 303.76 155.24 312.24 85.48 382 165.49 382 63.74 483.74"/><path class="cls-2" d="M338,167.5A58.5,58.5,0,0,0,279.5,109c-1.43,0-2.85.07-4.25.17a85,85,0,0,0-167.11-30.1c-.88,0-1.75-.07-2.64-.07A73.5,73.5,0,0,0,102,225.91V226H284v-.19A58.5,58.5,0,0,0,338,167.5Z" transform="translate(-32 -13)"/></svg>